<?xml version="1.0" standalone="no"?>
<!DOCTYPE svg PUBLIC "-//W3C//DTD SVG 20010904//EN"
 "http://www.w3.org/TR/2001/REC-SVG-20010904/DTD/svg10.dtd">
<svg version="1.0" xmlns="http://www.w3.org/2000/svg"
 width="309.000000pt" height="90.000000pt" viewBox="0 0 309.000000 90.000000"
 preserveAspectRatio="xMidYMid meet">

<g transform="translate(0.000000,90.000000) scale(0.100000,-0.100000)"
fill="#000000" stroke="none">
<path d="M542 840 c-211 -77 -309 -312 -214 -514 38 -80 99 -144 178 -182 53
-26 69 -29 159 -29 87 0 107 3 157 27 79 37 142 98 181 177 30 61 32 73 32
166 0 93 -2 105 -33 167 -38 78 -101 139 -182 176 -75 35 -201 41 -278 12z
m42 -42 c-30 -28 -65 -69 -76 -90 -12 -22 -38 -49 -58 -61 -19 -12 -59 -43
-87 -71 -50 -46 -53 -48 -53 -24 0 14 16 57 36 96 49 99 132 168 231 191 63
15 64 13 7 -41z m242 11 c99 -47 179 -151 199 -259 l6 -35 -30 35 c-16 19 -31
44 -33 55 -2 11 -12 21 -23 23 -53 8 -96 36 -122 81 -15 25 -49 68 -77 95
l-50 48 35 -6 c19 -4 62 -21 95 -37z m-175 -12 c-15 -15 -14 -54 2 -60 23 -8
-9 -29 -60 -38 -26 -5 -56 -12 -66 -15 -17 -5 -17 -4 -4 23 8 15 41 53 73 83
48 45 59 52 62 36 2 -10 -1 -23 -7 -29z m142 -65 c17 -23 29 -44 26 -46 -8 -7
-118 19 -130 31 -9 9 -9 16 1 28 10 12 10 21 1 41 -6 14 -11 32 -11 41 0 22
73 -39 113 -95z m-108 37 c0 -7 -8 -15 -17 -17 -18 -3 -25 18 -11 32 10 10 28
1 28 -15z m14 -85 c27 -34 26 -45 -4 -74 l-25 -23 -1 24 c0 18 -2 20 -7 7 -6
-15 -9 -15 -29 2 -28 22 -28 25 -2 61 25 36 42 37 68 3z m-90 -15 c-8 -15 -17
-19 -32 -15 -12 3 -33 6 -47 7 -20 0 -17 3 15 14 22 7 48 13 58 14 15 1 16 -2
6 -20z m170 7 l45 -13 -44 -6 c-42 -5 -59 2 -60 26 0 10 8 9 59 -7z m-196 -37
c39 -20 77 -62 77 -85 0 -33 -21 -35 -54 -5 -26 23 -27 24 -17 4 6 -12 16 -25
21 -28 6 -3 10 -13 10 -22 0 -12 -7 -14 -27 -10 -16 2 -37 1 -48 -3 -19 -8
-19 -9 -1 -9 18 -1 18 -3 -4 -27 -18 -18 -31 -23 -47 -19 -27 6 -31 -3 -5 -13
16 -6 17 -11 6 -47 l-11 -40 -7 45 c-4 25 -7 50 -7 55 0 6 -8 18 -17 28 -20
22 -9 44 32 67 26 14 29 14 43 -7 9 -13 20 -23 26 -23 6 0 1 10 -11 23 -11 12
-25 33 -31 47 -9 24 -10 24 -10 3 -1 -12 -10 -27 -22 -34 -18 -9 -20 -8 -16 8
3 10 8 31 12 47 4 21 9 26 14 17 6 -9 10 -5 15 13 7 29 40 35 79 15z m245 -21
c5 -38 -26 -96 -59 -113 -62 -32 -80 -4 -31 49 l27 31 -31 -27 c-35 -32 -64
-36 -64 -10 0 45 74 104 125 100 24 -2 31 -8 33 -30z m-372 -48 c-18 -74 -31
-93 -50 -67 -16 21 -42 22 -54 1 -5 -9 -17 -14 -27 -13 -14 3 -9 14 31 58 44
49 103 95 111 87 2 -2 -3 -31 -11 -66z m412 -30 c-2 -5 -10 -3 -19 3 -11 9
-14 24 -11 57 l5 45 14 -48 c8 -27 13 -53 11 -57z m23 87 c9 -7 18 -21 20 -32
3 -13 14 -21 31 -23 23 -3 78 -57 78 -76 0 -3 -24 -6 -53 -6 -63 0 -82 15 -90
75 -3 22 -8 48 -12 58 -8 20 3 22 26 4z m67 -30 c2 -10 -3 -17 -12 -17 -18 0
-29 16 -21 31 9 14 29 6 33 -14z m-87 -85 l31 -28 -32 -27 c-39 -33 -50 -34
-80 -2 l-23 25 24 1 c18 1 20 2 6 6 -18 4 -17 6 4 29 28 30 32 30 70 -4z
m-476 -23 c0 -7 -8 -15 -17 -17 -18 -3 -25 18 -11 32 10 10 28 1 28 -15z m-35
-21 c16 -10 24 -10 41 0 13 9 25 10 31 4 8 -8 37 -111 38 -135 1 -22 -104 63
-141 115 -17 24 -18 28 -5 28 9 0 25 -6 36 -12z m263 0 c2 -7 -10 -28 -27 -47
l-31 -34 37 28 c24 17 45 25 58 22 11 -3 23 -1 26 5 4 5 22 -5 43 -24 33 -31
34 -31 8 -2 -44 49 -31 77 23 49 39 -20 70 -70 70 -112 0 -31 -2 -33 -37 -33
-49 0 -96 29 -113 69 l-13 32 -14 -30 c-21 -42 -60 -65 -114 -67 l-47 -2 10
40 c11 53 22 72 54 97 30 24 60 27 67 9z m397 9 c0 -17 -56 -73 -78 -77 -17
-3 -28 -12 -30 -25 -2 -18 -39 -52 -47 -43 -4 4 21 124 29 137 6 9 126 17 126
8z m1 -73 c-35 -140 -140 -242 -280 -273 l-43 -9 51 50 c28 28 62 69 76 92 24
41 70 73 114 78 17 2 27 11 32 30 7 27 50 88 58 82 2 -2 -2 -24 -8 -50z m-585
-70 c31 -20 62 -50 77 -77 14 -24 46 -62 71 -85 25 -23 46 -44 46 -46 0 -9
-86 17 -131 40 -92 46 -170 150 -185 245 l-7 43 39 -44 c21 -24 62 -58 90 -76z
m423 44 l-13 -53 -8 45 c-6 37 -5 47 9 57 24 19 27 10 12 -49z m97 1 c10 -17
-13 -36 -27 -22 -12 12 -4 33 11 33 5 0 12 -5 16 -11z m-287 -24 c1 18 3 17
28 -8 l27 -27 -20 -27 c-30 -40 -50 -40 -73 -2 l-20 33 21 24 c21 21 23 22 29
5 7 -16 8 -16 8 2z m-59 -55 c13 -24 9 -24 -50 -6 l-45 14 35 4 c19 3 38 6 42
6 4 1 12 -7 18 -18z m178 9 c24 0 25 -1 7 -8 -11 -5 -35 -12 -53 -16 -32 -7
-33 -6 -22 15 7 13 17 19 27 16 8 -3 27 -6 41 -7z m-191 -35 c44 -7 80 -33 56
-41 -16 -6 -17 -45 -2 -60 6 -6 9 -19 7 -29 -2 -14 -14 -7 -58 33 -30 28 -64
66 -74 83 l-19 33 24 -7 c13 -3 43 -9 66 -12z m223 10 c0 -24 -112 -144 -135
-144 -10 0 -5 36 7 48 9 9 8 18 -2 37 -12 23 -12 28 0 35 8 6 26 10 40 11 14
0 34 4 45 9 24 10 45 12 45 4z m-135 -84 c0 -22 -29 -18 -33 3 -3 14 1 18 15
15 10 -2 18 -10 18 -18z"/>
<path d="M1860 510 l0 -130 30 0 30 0 0 130 0 130 -30 0 -30 0 0 -130z"/>
<path d="M1379 577 c-58 -39 -64 -116 -15 -174 21 -24 31 -28 79 -28 40 0 61
5 76 19 26 24 26 32 0 47 -15 8 -24 8 -32 0 -16 -16 -63 -13 -81 5 -21 21 -20
57 2 77 22 20 45 21 74 6 17 -9 24 -7 41 9 l20 21 -34 20 c-44 27 -88 27 -130
-2z"/>
<path d="M1634 591 c-12 -5 -31 -22 -44 -38 -18 -23 -21 -37 -17 -76 8 -84 50
-111 158 -101 l69 7 0 103 0 104 -29 0 c-15 0 -48 2 -72 5 -24 3 -54 1 -65 -4z
m94 -64 c15 -12 16 -69 0 -85 -16 -16 -70 -16 -86 0 -16 16 -15 60 1 80 21 28
53 29 85 5z"/>
<path d="M2288 593 l-48 -4 0 -130 0 -130 28 3 c19 2 28 9 30 26 3 20 7 21 42
16 68 -11 124 39 124 111 0 64 -50 118 -106 113 -13 -1 -44 -3 -70 -5z m109
-79 c15 -24 15 -29 2 -53 -16 -28 -37 -36 -75 -27 -20 5 -24 13 -24 44 0 45
14 62 52 62 19 0 33 -8 45 -26z"/>
<path d="M2526 579 c-46 -36 -33 -83 31 -110 64 -27 45 -58 -22 -36 -14 5 -24
1 -33 -13 -10 -17 -8 -21 18 -35 37 -19 80 -19 108 1 57 40 48 91 -22 120 -54
22 -54 39 -2 39 49 0 70 30 31 45 -41 16 -80 12 -109 -11z"/>
<path d="M2753 580 c-40 -24 -53 -48 -53 -99 0 -88 101 -140 178 -92 18 12 37
33 42 47 42 109 -68 205 -167 144z m109 -64 c25 -37 -5 -86 -51 -86 -37 0 -53
21 -49 62 5 54 70 70 100 24z"/>
<path d="M1960 585 c0 -3 20 -46 45 -95 44 -87 44 -89 30 -124 l-15 -36 31 0
c29 0 33 5 90 126 32 69 59 127 59 130 0 2 -14 4 -31 4 -27 0 -33 -6 -58 -62
l-29 -62 -31 62 c-28 55 -35 62 -61 62 -17 0 -30 -2 -30 -5z"/>
</g>
</svg>
